<svg width="15" height="15" viewBox="0 0 15 15" fill="none" xmlns="http://www.w3.org/2000/svg">
<path d="M3.87504 7.66733C3.96949 7.55915 3.96009 7.40225 3.86762 7.27118C3.72192 7.06392 3.56929 6.87032 3.40973 6.69035C3.21919 6.47563 2.92514 6.07818 2.52758 5.498C2.10166 4.87592 1.7514 4.25076 1.4768 3.62251C1.33274 3.29344 1.21703 3.00026 1.12967 2.74298C0.989733 2.33124 0.908144 1.81133 1.17863 1.4527C1.29961 1.2919 1.48108 1.17024 1.72305 1.08773C2.19578 0.926445 2.60175 1.00782 3.08684 1.16813C3.50467 1.30603 3.84339 1.50727 4.26469 1.71241C4.58611 1.86931 4.86351 2.04473 5.22449 2.25474C5.8838 2.63806 6.4897 3.09658 7.04221 3.6303C7.14539 3.73003 7.30346 3.81481 7.51642 3.88466C7.538 3.89197 7.56144 3.89265 7.58366 3.88661C7.74783 3.8434 7.86123 3.79435 7.92387 3.73945C8.42462 3.30026 8.87525 2.93253 9.27579 2.63627C9.94696 2.13926 10.6582 1.73645 11.4095 1.42784C11.9422 1.20857 12.4609 1.07506 12.9656 1.02731C13.2366 1.00148 13.7246 1.06824 13.8567 1.33526C13.9737 1.57208 14.019 1.8326 13.9927 2.11684C13.9567 2.50438 13.8924 2.83622 13.7998 3.11233C13.5605 3.82342 13.2722 4.44891 12.935 4.98881C12.5875 5.54397 12.2682 5.99632 11.9771 6.34585C11.8054 6.55213 11.6079 6.7675 11.3848 6.99197C11.182 7.19614 10.9753 7.4539 11.1998 7.73116C11.2618 7.80782 11.4677 8.05633 11.8174 8.47668C12.2536 9.00098 12.6289 9.55988 12.9844 10.1358C13.0691 10.2732 13.2153 10.5516 13.423 10.971C13.6821 11.495 13.862 12.0191 13.9625 12.5434C14.0321 12.9043 14.0049 13.2448 13.8809 13.5647C13.7425 13.9224 13.2168 14.0062 12.9013 13.9731C12.4715 13.9282 12.0391 13.8207 11.6043 13.6505C11.23 13.5038 10.7662 13.3016 10.3894 13.0833C9.72774 12.7003 9.09464 12.2644 8.49005 11.7755C8.30347 11.6248 8.17424 11.514 8.10238 11.4432C7.95304 11.2957 7.82135 11.1856 7.70728 11.1128C7.52977 10.9988 7.35027 11.0894 7.18709 11.2244C6.48624 11.8042 5.90951 12.2504 5.45689 12.5629C4.77352 13.0346 4.02388 13.4103 3.21837 13.7426C3.03508 13.8183 2.82196 13.8844 2.579 13.9409C2.25165 14.0169 1.96337 14.0247 1.64641 13.9341C1.3601 13.8522 1.16923 13.497 1.11187 13.2378C1.0377 12.9003 1.0405 12.5671 1.12028 12.2384C1.18324 11.9785 1.30686 11.6608 1.49114 11.2853C1.75585 10.7457 1.97326 10.3387 2.14336 10.0642C2.35352 9.72409 2.48851 9.49605 2.66109 9.24218C3.0448 8.67792 3.44946 8.15297 3.87504 7.66733ZM4.5065 6.83556C4.62122 6.77254 4.70099 6.71878 4.74583 6.67427C5.30591 6.11359 5.85907 5.55859 6.40531 5.00927C6.48608 4.92741 6.50075 4.84311 6.44932 4.75638C6.44246 4.74511 6.43357 4.7352 6.42311 4.72714C6.09807 4.47636 5.78325 4.22168 5.47865 3.96311C4.81703 3.40177 4.1419 2.91385 3.45325 2.49935C3.02601 2.24158 2.45983 1.97359 1.93172 2.01452C1.9102 2.01618 1.88998 2.02532 1.87467 2.04032C1.85937 2.05531 1.84997 2.07518 1.84816 2.09638C1.84552 2.12626 1.85178 2.20341 1.86695 2.32783C1.87585 2.40125 1.89151 2.47141 1.91392 2.53833C2.16973 3.29295 2.45522 3.93923 2.77037 4.47717C3.07596 4.99888 3.51934 5.65767 4.10053 6.45354C4.16234 6.53784 4.33986 6.7956 4.45853 6.83897C4.46627 6.84187 4.47457 6.84307 4.48285 6.84248C4.49113 6.8419 4.4992 6.83953 4.5065 6.83556ZM13.199 2.25718C13.2006 2.25154 13.2009 2.24566 13.2001 2.23988C13.1993 2.2341 13.1973 2.22854 13.1943 2.22353C13.1912 2.21853 13.1872 2.21418 13.1824 2.21075C13.1776 2.20732 13.1722 2.20488 13.1664 2.20358C12.8568 2.13146 12.2635 2.26546 11.945 2.42236C11.4312 2.67477 10.9684 2.96177 10.4072 3.33697C10.1111 3.5348 9.59423 3.92689 8.85646 4.51323C8.71158 4.62823 8.57115 4.7325 8.63691 4.89477C8.68307 5.00976 8.76663 5.12394 8.88762 5.23732C9.38902 5.70867 9.90164 6.23021 10.4255 6.80194C10.5244 6.90962 10.6148 6.95738 10.7261 6.81802C11.2519 6.15598 11.7357 5.46779 12.1774 4.75346C12.4036 4.388 12.6427 3.91698 12.8949 3.34038C12.9015 3.32511 12.9552 3.17925 13.0561 2.90281C13.1362 2.68402 13.1441 2.45744 13.199 2.25718ZM7.46598 5.77818C7.39082 5.81424 7.32406 5.86459 7.26571 5.92924C7.01188 6.21153 6.81408 6.42625 6.67233 6.57341C6.27032 6.99148 6.00676 7.32185 5.58694 7.7448C5.40398 7.92899 5.55035 8.13364 5.69622 8.29249C6.254 8.89768 6.83897 9.46259 7.45114 9.98722C7.46827 10.0018 7.48994 10.0103 7.51258 10.0112C7.53523 10.0121 7.5575 10.0053 7.57575 9.99209C7.74651 9.86605 7.91447 9.72523 8.07963 9.56963C8.67993 9.00374 9.1637 8.52638 9.53094 8.13754C9.60017 8.06413 9.645 7.98974 9.66544 7.91437C9.67195 7.89012 9.67201 7.8646 9.6656 7.84028C9.65919 7.81596 9.64654 7.79365 9.62885 7.7755C9.52946 7.67415 9.36974 7.55038 9.25254 7.43441C8.56884 6.75776 8.04716 6.24353 7.68751 5.89172C7.60048 5.80693 7.54345 5.76487 7.51642 5.76551C7.49882 5.76616 7.48162 5.77048 7.46598 5.77818ZM8.08705 10.4881C8.08166 10.506 8.0805 10.5248 8.08368 10.5432C8.08685 10.5615 8.09426 10.5788 8.10534 10.5939C8.26061 10.8044 8.45132 10.9869 8.67746 11.1416C9.09579 11.4268 9.69033 11.7989 10.4611 12.2579C10.8969 12.5171 11.3604 12.7426 11.8515 12.9342C12.1146 13.0365 12.4276 13.1501 12.7065 13.1272C12.7265 13.1256 12.7451 13.1168 12.7589 13.1025C12.7727 13.0882 12.7806 13.0694 12.7812 13.0497C12.7911 12.7031 12.7355 12.3672 12.6145 12.042C12.5443 11.8535 12.4276 11.5986 12.3317 11.4359C12.0047 10.8797 11.7972 10.5408 11.7091 10.4189C11.4846 10.1076 11.3551 9.89853 11.1578 9.64418C10.8865 9.29334 10.615 8.9378 10.3434 8.57755C10.1565 8.32904 9.94136 8.57852 9.81625 8.6979C9.66461 8.84278 9.13436 9.3679 8.2255 10.2732C8.15628 10.3421 8.11012 10.4137 8.08705 10.4881ZM6.94875 10.4496C6.9415 10.4295 6.92386 10.4056 6.89584 10.378C6.11851 9.60682 5.68947 9.17997 5.6087 9.09746C5.45442 8.93959 5.29915 8.77944 5.1429 8.61701C5.05653 8.52736 4.96917 8.4991 4.88082 8.53223C4.82676 8.5527 4.75588 8.6175 4.66819 8.72665C4.51655 8.91636 4.26684 9.22318 3.91905 9.6471C3.63258 9.99599 3.22958 10.5531 2.71004 11.3184C2.50697 11.617 2.34725 11.9303 2.23089 12.2584C2.12836 12.5472 2.07331 12.8343 2.06573 13.1199C2.06537 13.1327 2.06802 13.1455 2.07347 13.1572C2.07892 13.1689 2.08703 13.1792 2.09716 13.1873C2.1073 13.1954 2.11919 13.2011 2.13192 13.2039C2.14464 13.2068 2.15787 13.2067 2.17056 13.2037C2.90239 13.0312 3.60143 12.764 4.26766 12.4021C4.83632 12.0932 5.35519 11.764 5.82429 11.4144C6.239 11.1055 6.60047 10.8308 6.9087 10.5905C6.92956 10.5741 6.94467 10.5517 6.95186 10.5264C6.95905 10.5012 6.95796 10.4743 6.94875 10.4496Z" fill="#8EBF36"/>
</svg>
